<svg xmlns:x="&amp;ns_extend;" xmlns:i="&amp;ns_ai;" xmlns:graph="&amp;ns_graphs;" xmlns="http://www.w3.org/2000/svg"
  xmlns:xlink="http://www.w3.org/1999/xlink" version="1.1" id="Layer_1" x="0px" y="0px" viewBox="0 0 269.4 315"
  style="enable-background:new 0 0 269.4 315;" xml:space="preserve" width="308" height="361">
  <style type="text/css">
    .st0 {
      fill: url(#SVGID_1_);
    }

    .st1 {
      fill: url(#SVGID_00000052064402304009620180000000185469859131496088_);
    }

    .st2 {
      fill: url(#SVGID_00000170264931926199580590000008011235897602085799_);
    }

    .st3 {
      opacity: 0.25;
      fill: url(#SVGID_00000054948935280144341780000008598924439949340820_);
      enable-background: new;
    }

    .st4 {
      opacity: 0.25;
      fill: url(#SVGID_00000173849518208565904080000013460262448797518757_);
      enable-background: new;
    }
  </style>
  <metadata>
    <sfw>
      <slices />
      <sliceSourceBounds bottomLeftOrigin="true" height="315" width="269.4" x="0" y="0" />
    </sfw>
  </metadata>
  <g id="color_index_g">
    <linearGradient id="SVGID_1_" gradientUnits="userSpaceOnUse" x1="335.0301" y1="302.1026" x2="-47.9574" y2="-7.6542"
      gradientTransform="matrix(1 0 0 -1 0 316)">
      <stop offset="5.910000e-02" style="stop-color:#6cdcff" />
      <stop offset="0.9094" style="stop-color:#4a4fff" />
    </linearGradient>
    <linearGradient id="SVGID_00000054235785203377014390000009041939671628010126_" gradientUnits="userSpaceOnUse"
      x1="320.0957" y1="162.2283" x2="119.7882" y2="38.2904" gradientTransform="matrix(1 0 0 -1 0 316)">
      <stop offset="5.910000e-02" style="stop-color:#6cdcff" />
      <stop offset="0.9094" style="stop-color:#4a4fff" />
    </linearGradient>
    <linearGradient id="SVGID_00000033342000386433036900000011350094456777423259_" gradientUnits="userSpaceOnUse"
      x1="301.2109" y1="358.4416" x2="70.7457" y2="192.3389" gradientTransform="matrix(1 0 0 -1 0 316)">
      <stop offset="5.910000e-02" style="stop-color:#6cdcff" />
      <stop offset="0.9094" style="stop-color:#4a4fff" />
    </linearGradient>
    <path class="st0"
      d="M257.7,279c0,0-0.1,0.1-0.1,0.1C229.6,302,195.2,315,157.1,315C81.4,314.9,17.9,260.2,3.3,189.2&#9;&#9;c0-0.1,0-0.1,0-0.2C1,178.1-0.1,167.1,0,155.9C0.9,69.7,71,0,157.5,0c37.9,0,72.7,13.4,99.9,35.7c13.3,10.4,15.4,29.9,7,42.9&#9;&#9;c-9.2,16.5-34.6,21.1-49.4,8.3c-13.7-11.2-30.8-18.2-48.4-20c0,0,0,0,0,0c-4.8-0.5-9.6-0.6-14.3-0.3c-47.1,2.6-84.7,41.5-85.8,88.7&#9;&#9;c-0.7,21.2,6.4,41.2,18.6,57.2c16.6,21.8,42.9,36.1,72.4,36c43.4,0.9,51.4-25.8,78.3-27.9C266.8,220.7,280.6,258.9,257.7,279z" />
    <path style="fill:url(#SVGID_00000054235785203377014390000009041939671628010126_);"
      d="M261.6,275c-1.2,1.4-2.5,2.8-3.9,4&#9;&#9;c0,0-0.1,0.1-0.1,0.1c0,0-0.1,0-0.1,0c-13,3.5-26.7,5.2-40.8,5.2c-55-0.1-103.5-28.8-131.5-71.9c12.4,16.2,30.2,28.4,50.6,33.4&#9;&#9;c7,1.7,14.2,2.6,21.8,2.6c43.4,0.9,51.4-25.8,78.3-27.9C264.9,220.7,278.8,254.2,261.6,275z" />
    <path style="fill:url(#SVGID_00000033342000386433036900000011350094456777423259_);"
      d="M264.4,78.6c-9.2,16.5-34.6,21.1-49.4,8.3&#9;&#9;c-7.4-6.1-15.8-10.9-24.8-14.4c-7.6-2.9-15.5-4.8-23.6-5.6c0,0,0,0,0,0C88.1,54.9,13.4,112.1,3.3,189.1c0-0.1,0-0.1,0-0.2&#9;&#9;c-0.9-4.4-1.6-8.7-2.1-13.1c-0.8-6.6-1.1-13.2-1.1-20C0.9,69.7,71,0,157.5,0c37.9,0,72.7,13.4,99.9,35.7&#9;&#9;C270.7,46.1,272.8,65.6,264.4,78.6z" />
  </g>
  <g>
    <linearGradient id="SVGID_00000065053890406530106580000014285324959969835448_" gradientUnits="userSpaceOnUse"
      x1="311.4292" y1="-6.177" x2="71.4996" y2="107.4269" gradientTransform="matrix(1 0 0 -1 0 316)">
      <stop offset="6.730000e-02" style="stop-color:#000000" />
      <stop offset="0.5207" style="stop-color:#000000;stop-opacity:0" />
    </linearGradient>
    <linearGradient id="SVGID_00000026134643012786794460000005629321599828915857_" gradientUnits="userSpaceOnUse"
      x1="-14.3109" y1="144.1936" x2="227.2195" y2="310.0508" gradientTransform="matrix(1 0 0 -1 0 316)">
      <stop offset="6.730000e-02" style="stop-color:#000000" />
      <stop offset="0.5207" style="stop-color:#000000;stop-opacity:0" />
    </linearGradient>
    <path
      style="opacity:0.25;fill:url(#SVGID_00000065053890406530106580000014285324959969835448_);enable-background:new    ;"
      d="&#9;&#9;M261.6,275c-1.2,1.4-2.5,2.8-3.9,4c0,0-0.1,0.1-0.1,0.1c0,0-0.1,0-0.1,0c-13,3.5-26.7,5.2-40.8,5.2c-55-0.1-103.5-28.8-131.5-71.9&#9;&#9;c12.4,16.2,30.2,28.4,50.6,33.4C144.2,253.4,188.4,287.6,261.6,275z" />
    <path
      style="opacity:0.25;fill:url(#SVGID_00000026134643012786794460000005629321599828915857_);enable-background:new    ;"
      d="&#9;&#9;M190.2,72.5c-7.6-2.9-15.5-4.8-23.6-5.6c0,0,0,0,0,0C88.1,54.9,13.4,112.1,3.3,189.1c0-0.1,0-0.1,0-0.2c-0.9-4.4-1.6-8.7-2.1-13.1&#9;&#9;C6.4,151.4,30.6,69.9,126,50.5C177.5,40.1,191.1,57.3,190.2,72.5z" />
  </g>
</svg>